<?xml version="1.0" encoding="UTF-8"?>
<svg enable-background="new 0 0 490 490" version="1.1" viewBox="0 0 490 490" xml:space="preserve" xmlns="http://www.w3.org/2000/svg">
		<path d="m345 190l-10 70h-50v175h-90v-165h-50v-80h60v-70s0-70 70-70h60v70h-40s-10 0-10 10 0 60 0 60h60z" fill="#fff"/>
		<path d="m480 30v430c0 10.996-9.004 20-20 20h-430c-10.996 0-20-9.004-20-20v-430c0-11.001 9.004-20 20-20h430c10.996 0 20 8.999 20 20zm-145 230l10-70h-60v-60s10-10 10-10h40v-70h-60c-70 0-70 70-70 70v70h-60v80h50v165h90v-175h50z" fill="#3D5A98"/>
	<g fill="#231F20">
		<path d="m460 0h-430c-16.542 0-30 13.458-30 30v430c0 16.542 13.458 30 30 30h430c16.542 0 30-13.458 30-30v-430c0-16.542-13.458-30-30-30zm10 460c0 5.514-4.486 10-10 10h-430c-5.514 0-10-4.486-10-10v-430c0-5.514 4.486-10 10-10h430c5.514 0 10 4.486 10 10v430z"/>
		<path d="m345 180h-50v-49.965c0.076-0.015 0.151-0.027 0.219-0.035h39.781c5.523 0 10-4.477 10-10v-70c0-5.522-4.477-10-10-10h-60c-41.268 0-60.95 22.039-70.194 40.528-9.695 19.388-9.806 38.661-9.806 39.472v60h-50c-5.523 0-10 4.477-10 10v80c0 5.523 4.477 10 10 10h40v155c0 5.523 4.477 10 10 10h90c5.523 0 10-4.477 10-10v-165h40c4.977 0 9.196-3.659 9.899-8.586l10-70c0.41-2.87-0.445-5.776-2.345-7.966-1.899-2.19-4.655-3.448-7.554-3.448zm-18.673 70h-41.327c-5.523 0-10 4.477-10 10v165h-70v-155c0-5.522-4.477-10-10-10h-40v-60h50c5.523 0 10-4.477 10-10v-69.969c1e-3 -0.158 0.189-15.92 7.977-31.119 9.833-19.184 27.336-28.912 52.023-28.912h50v50h-30c-9.695 0-20 7.009-20 20v60c0 5.523 4.477 10 10 10h48.47l-7.143 50z"/>
	</g>
</svg>
