<?xml version="1.0" encoding="UTF-8"?>
<svg enable-background="new 0 0 393.837 393.837" version="1.1" viewBox="0 0 393.837 393.837" xml:space="preserve" xmlns="http://www.w3.org/2000/svg">
		<g fill="#F88400">
			<path d="m382.26 373.99v9.838h-73.781c0-73.781-29.32-130.05-29.32-130.05-29.897-61.388-75.646-107.33-136.84-137.53-30.104-14.852-61.974-24.099-95.421-27.346-9.544-0.984-19.185-1.575-28.826-1.868l0.197-77.03c44.365 0.591 87.75 11.413 128.87 27.841 90.704 36.007 157.11 98.472 199.8 186.03-1e-3 0 35.314 81.256 35.314 150.12z"/>
			<path d="m259.29 383.82h-73.782c-1.868-19.675-3.838-32.952-7.085-46.036-7.767-30.791-24.099-59.227-47.021-81.063-24.003-22.923-52.334-37.679-84.801-44.077l-33.25-5.803v-73.877c53.318 2.066 107.42 21.841 149.63 54.697 1e-3 0 96.311 73.191 96.311 196.16z"/>
			<path d="m116.94 331.2c0.101 30.492-25.478 53.213-52.728 52.627-28.628 0-52.531-23.71-52.632-52.233-0.096-28.734 24.003-52.435 52.829-52.732 26.462-0.202 52.333 21.346 52.531 52.338z"/>
		</g>
		<g fill="#231F20">
			<path d="m356.12 219.88c-0.058-0.134-0.119-0.266-0.183-0.397-43.942-90.118-112.95-154.36-205.08-190.93-46.034-18.389-90.596-27.996-132.45-28.553-2.666-0.018-5.245 0.999-7.148 2.872-1.903 1.874-2.978 4.431-2.985 7.102l-0.197 77.029c-0.014 5.415 4.284 9.856 9.696 10.021 9.837 0.299 19.293 0.912 28.163 1.826 31.831 3.09 62.772 11.959 91.961 26.36 58.988 29.117 103.49 73.846 132.27 132.94 0.037 0.076 0.079 0.16 0.118 0.234 0.282 0.543 28.193 55.172 28.193 125.44 0 5.523 4.477 10 10 10h73.781c5.523 0 10-4.477 10-10v-9.838c0-70.135-34.668-150.71-36.143-154.1zm-37.808 153.94c-2.353-69.336-28.331-120.89-30.214-124.54-30.771-63.122-78.327-110.9-141.35-142.01-31.367-15.474-64.635-25.006-98.82-28.325-6.335-0.653-12.973-1.161-19.827-1.517l0.146-57.114c36.466 1.817 75.163 10.818 115.21 26.816 43.828 17.398 82.442 41.521 114.77 71.699 32.074 29.939 58.863 66.679 79.628 109.21 1.854 4.34 34.354 81.449 34.407 145.79h-53.952z"/>
			<path d="m169.09 179.75c-43.617-33.943-100.24-54.635-155.35-56.77-2.703-0.099-5.359 0.901-7.32 2.786-1.96 1.885-3.067 4.487-3.067 7.206v73.877c0 4.859 3.494 9.016 8.281 9.851l33.141 5.784c30.368 6.005 57.19 19.96 79.731 41.486 21.514 20.495 36.806 46.868 44.213 76.231 3.034 12.226 4.951 24.723 6.835 44.573 0.487 5.133 4.798 9.055 9.955 9.055h73.782c5.523 0 10-4.477 10-10 0-66.173-27.202-118.1-50.021-150.01-24.339-34.034-48.542-52.813-50.184-54.069zm25.461 194.08c-1.725-15.919-3.628-27.205-6.427-38.482-8.341-33.066-25.568-62.756-49.811-85.85-25.358-24.217-55.563-39.914-89.774-46.657-0.071-0.014-0.142-0.027-0.214-0.04l-24.969-4.357v-54.842c47.7 3.994 95.828 22.641 133.48 51.958 0.024 0.019 0.059 0.045 0.083 0.064 0.233 0.178 23.541 18.146 46.474 50.379 19.772 27.792 43.13 71.964 45.669 127.82h-54.516v2e-3z"/>
			<path d="m64.776 268.86l-0.471 2e-3c-16.601 0.171-32.3 6.78-44.205 18.608-11.999 11.921-18.576 27.604-18.521 44.16 0.059 16.466 6.655 32.048 18.575 43.876 11.881 11.789 27.486 18.293 43.95 18.322 0.38 7e-3 0.759 0.011 1.139 0.011 15.974 0 31.818-6.705 43.47-18.395 11.809-11.848 18.282-27.572 18.227-44.307-0.246-38.467-32.459-62.277-62.164-62.277zm29.771 92.465c-8.128 8.155-19.157 12.747-30.121 12.505-0.072-1e-3 -0.143-2e-3 -0.215-2e-3 -23.028 0-42.551-19.357-42.632-42.267-0.076-22.904 19.585-42.459 42.905-42.7l0.291-1e-3c20.147 0 41.996 16.212 42.163 42.374 0.039 11.349-4.362 22.035-12.391 30.091z"/>
		</g>
</svg>
