<?xml version="1.0" encoding="UTF-8"?>
<svg enable-background="new 0 0 490 490" version="1.1" viewBox="0 0 490 490" xml:space="preserve" xmlns="http://www.w3.org/2000/svg">
		<path d="m480 30v430c0 10.996-9.004 20-20 20h-430c-10.996 0-20-9.004-20-20v-430c0-11.001 9.004-20 20-20h430c10.996 0 20 8.999 20 20z" fill="#61A8DE"/>
				<path d="m382.6 107.5c22.402-7.002 37.402 2.998 37.402 17.998 0 0-57.402 247.01-67.402 267.01s-25 10-25 10l-85-60-35 35s-30 0-30 0l-35-95s-55.703-6.309-75-25c-17.598-17.007-2.598-27.007-2.598-27.007l317.6-123zm-147.6 168l135-130-200 115 30 80 35-65z" fill="#fff"/>
			<g fill="#231F20">
				<path d="m460 0h-430c-16.542 0-30 13.458-30 30v430c0 16.542 13.458 30 30 30h430c16.542 0 30-13.458 30-30v-430c0-16.542-13.458-30-30-30zm10 460c0 5.514-4.486 10-10 10h-430c-5.514 0-10-4.486-10-10v-430c0-5.514 4.486-10 10-10h430c5.514 0 10 4.486 10 10v430z"/>
				<path d="m396.43 95.214c-5.348 0-11.004 0.92-16.813 2.736-0.212 0.066-0.421 0.14-0.628 0.22l-317.6 123c-0.68 0.263-1.329 0.6-1.936 1.005-0.952 0.635-9.333 6.518-10.319 17.433-0.771 8.517 3.104 16.957 11.507 25.078 17.774 17.217 58.553 24.621 74.664 26.947l32.909 89.327c0.128 0.347 0.274 0.686 0.439 1.016 2.679 5.354 10.384 14.416 22.277 14.416 7.91 0 15.896-3.976 23.738-11.817l29.044-29.044 78.118 55.143c0.072 0.051 0.146 0.101 0.22 0.15 1.047 0.698 6.656 4.18 14.297 4.18 6.043 0 17.352-2.342 25.194-18.028 10.233-20.466 62.296-243.82 68.198-269.22 0.173-0.742 0.26-1.502 0.26-2.264 1e-3 -17.547-14.118-30.281-33.571-30.281zm-52.775 292.81c-1.59 3.181-4.148 6.972-7.306 6.972-1.383 0-2.733-0.58-3.271-0.873l-84.713-59.797c-3.977-2.807-9.396-2.343-12.838 1.099l-35 35c-5.53 5.53-8.742 5.96-9.596 5.96-1.984 0-3.676-2.288-4.252-3.166l-34.697-94.18c-1.307-3.545-4.502-6.052-8.255-6.479-14.564-1.659-55.382-8.89-69.18-22.255-5.289-5.111-5.548-8.044-5.501-8.822 0.057-0.937 0.662-1.765 1.138-2.278l315.7-122.26c3.763-1.149 7.309-1.731 10.543-1.731 3.07 0 12.845 0.689 13.534 9.297-22.983 98.855-59.388 249.68-66.307 263.52z"/>
				<path d="m365.02 136.82l-200 115c-4.245 2.441-6.098 7.596-4.379 12.18l30 80c1.377 3.673 4.774 6.201 8.688 6.466 0.228 0.016 0.453 0.023 0.678 0.023 3.659 0 7.051-2.006 8.803-5.259l34.259-63.623 133.87-128.92c3.639-3.503 4.093-9.17 1.06-13.209-3.035-4.038-8.605-5.179-12.982-2.663zm-136.95 131.47c-0.746 0.719-1.377 1.55-1.868 2.462l-24.563 45.616-19.289-51.437 122.14-70.234-76.421 73.593z"/>
			</g>
</svg>
